<?xml version="1.0" encoding="utf-8"?>
<!-- Generator: Adobe Illustrator 27.7.0, SVG Export Plug-In . SVG Version: 6.00 Build 0)  -->
<svg version="1.1" id="Capa_1" xmlns="http://www.w3.org/2000/svg" xmlns:xlink="http://www.w3.org/1999/xlink" x="0px" y="0px"
	 viewBox="0 0 139.4 24.4" style="enable-background:new 0 0 139.4 24.4;" xml:space="preserve">
<style type="text/css">
	.st0{fill:#798499;}
	.st1{fill:#BECCD7;}
	.st2{fill:none;}
</style>
<g>
	<g>
		<path class="st0" d="M14,11.6c0,0,0.1,0.1,0.1,0.1c0.7,0.4,1.3,0.8,1.8,1.4c0.5,0.6,0.9,1.4,1.1,2.2c0.1,0.5,0.1,0.9,0.1,1.4
			c0,0.5-0.1,1.1-0.1,1.6c-0.1,0.5-0.2,1.1-0.5,1.5c-0.2,0.4-0.5,0.8-0.8,1.2c-0.6,0.8-1.5,1.4-2.4,1.8c-0.6,0.2-1.2,0.4-1.8,0.5
			c-0.6,0.1-1.2,0.2-1.8,0.2c-0.4,0-0.7,0.1-1.1,0.1c-0.1,0-0.3,0-0.4,0c-0.7,0-1.3,0-2,0c-0.4,0-0.8-0.1-1.1-0.1
			c-0.3,0-0.7,0-1-0.1c-0.7-0.1-1.3-0.2-2-0.3c-0.4-0.1-0.9-0.1-1.3-0.2c-0.2,0-0.2-0.1-0.1-0.2c0.1-0.4,0.1-0.8,0.2-1.2
			C1,21.1,1,20.5,1.1,20c0.1-0.8,0.2-1.6,0.3-2.4c0.1-0.7,0.2-1.5,0.3-2.2c0.1-0.7,0.2-1.4,0.3-2.1c0-0.4,0.1-0.8,0.2-1.2
			c0.1-0.5,0.1-1,0.2-1.5C2.5,9.8,2.6,9,2.7,8.2C2.8,7.5,2.9,6.8,3,6.1c0-0.4,0.1-0.7,0.1-1.1C3.2,4.5,3.3,4,3.3,3.5
			c0-0.4,0.1-0.8,0.1-1.1c0-0.2,0.1-0.3,0.1-0.5c0-0.2,0-0.4,0.1-0.5s0.1-0.2,0.2-0.2C4.5,1.1,5.1,1,5.7,1c0.3,0,0.7,0,1-0.1
			c1-0.1,2-0.1,3-0.1c0.4,0,0.7,0.1,1.1,0.1c0.5,0.1,1.1,0.2,1.6,0.3c1,0.2,1.9,0.6,2.7,1.3c0.9,0.7,1.5,1.6,1.8,2.7
			c0.1,0.5,0.2,0.9,0.2,1.4c0,0.6-0.1,1.2-0.2,1.8c-0.1,0.4-0.3,0.8-0.5,1.2c-0.3,0.4-0.6,0.9-1,1.2c-0.4,0.3-0.7,0.5-1.1,0.8
			C14.2,11.5,14.1,11.6,14,11.6L14,11.6z M8.1,13.8c-0.4,0-0.7,0-0.9,0c-0.1,0-0.1,0-0.2,0.1c0,0.3-0.1,0.6-0.1,0.9
			c-0.1,0.9-0.2,1.7-0.3,2.5c-0.1,0.7-0.2,1.3-0.2,2c0,0.1,0,0.2,0.1,0.2c0.3,0,0.5,0.1,0.8,0.1c0.6,0.1,1.2,0.1,1.7,0
			c0.5-0.1,1.1-0.2,1.5-0.5c0.7-0.4,1.1-1,1.2-1.8c0.1-0.5,0-1-0.1-1.5c-0.2-1-1.1-1.7-2.1-1.9C9,13.8,8.5,13.7,8.1,13.8L8.1,13.8z
			 M7.4,10.2c0.1,0,0.2,0,0.2,0c0.6,0,1.2,0,1.8,0c0.2,0,0.3,0,0.5,0c0.5-0.1,0.9-0.4,1.2-0.8c0.7-0.8,0.9-1.8,0.8-2.8
			c0-0.1,0-0.2-0.1-0.3c-0.3-0.9-1-1.3-1.8-1.5C9.5,4.7,8.9,4.7,8.3,4.7c-0.1,0-0.1,0-0.2,0.1C8.1,5,8.1,5.3,8,5.5
			C8,5.9,8,6.3,7.9,6.6C7.9,7.1,7.8,7.5,7.7,8C7.7,8.4,7.6,8.9,7.6,9.3C7.5,9.6,7.5,9.9,7.4,10.2L7.4,10.2z"/>
		<path class="st0" d="M91.9,23.4c0-0.2,0.1-0.4,0.1-0.6c0.1-0.9,0.2-1.9,0.4-2.8c0.1-0.7,0.2-1.5,0.3-2.2c0.1-0.7,0.2-1.4,0.3-2.2
			c0.1-0.4,0.1-0.8,0.2-1.2c0.1-0.4,0.1-0.8,0.2-1.2c0.1-0.5,0.1-0.9,0.2-1.4c0.1-0.4,0.1-0.9,0.2-1.3c0.1-0.5,0.1-0.9,0.2-1.4
			c0.1-0.7,0.2-1.4,0.3-2.2c0.1-0.4,0.1-0.8,0.2-1.2c0.1-0.5,0.1-1,0.2-1.6c0.1-0.8,0.2-1.6,0.3-2.5c0.1-0.4,0-0.4,0.4-0.5
			c0.5-0.1,0.9-0.1,1.4-0.2C97,1,97.3,1,97.7,1c0.2,0,0.5,0,0.7,0c0.6,0,1.2-0.1,1.8-0.1c1.2,0,2.4,0.1,3.5,0.4
			c1,0.3,1.8,0.7,2.6,1.4c0.5,0.5,0.9,1.1,1.2,1.7c0.4,0.8,0.6,1.7,0.7,2.5c0.1,1.2,0,2.4-0.5,3.6c-0.3,0.7-0.7,1.2-1.1,1.8
			c-0.4,0.6-1,1-1.6,1.4c-0.2,0.2-0.5,0.3-0.7,0.4c-0.1,0.1-0.1,0.1-0.1,0.2c0.5,1,1,2,1.5,2.9c0.7,1.4,1.5,2.9,2.2,4.3
			c0.3,0.6,0.6,1.1,0.9,1.7c0,0,0,0.1,0.1,0.1c-0.1,0-0.1,0-0.2,0c-1.7,0-3.3,0-4.9,0c-0.2,0-0.4,0-0.6,0c-0.1,0-0.2,0-0.2-0.1
			c-0.3-0.8-0.7-1.5-1-2.3c-0.3-0.6-0.6-1.3-0.8-1.9c-0.5-1.1-1-2.2-1.4-3.3c0,0-0.1-0.1-0.1-0.1c-0.5,0-1,0-1.5,0
			c-0.1,0-0.1,0-0.1,0.1c-0.1,0.7-0.2,1.5-0.3,2.2c-0.1,0.4-0.1,0.9-0.2,1.3c-0.1,0.5-0.1,1-0.2,1.5c-0.1,0.7-0.2,1.5-0.3,2.2
			c0,0.1,0,0.2,0,0.3c0,0-0.1,0.1-0.1,0.1c-0.1,0-0.3,0-0.4,0c-1.1,0-2.2,0-3.2,0c-0.4,0-0.8,0-1.1,0C92,23.5,91.9,23.5,91.9,23.4
			L91.9,23.4z M99.3,5.4c0,0.3,0,0.5-0.1,0.7c-0.1,0.6-0.2,1.2-0.2,1.8C99,8.5,98.9,9,98.8,9.6c0,0.3-0.1,0.5-0.1,0.8
			c-0.1,0.4-0.1,0.8-0.1,1.2c0,0.1,0,0.1,0.1,0.1c0.6,0,1.2,0,1.9,0c0.3,0,0.7-0.1,1-0.3c0.7-0.4,1.1-0.9,1.4-1.6
			c0.2-0.3,0.3-0.7,0.3-1.1c0.1-0.5,0.1-1.1-0.1-1.6c-0.1-0.3-0.2-0.6-0.4-0.9c-0.4-0.5-0.9-0.8-1.5-0.9C100.6,5.3,100,5.4,99.3,5.4
			L99.3,5.4z"/>
		<path class="st0" d="M90.2,23.4h-5.3c-0.1-0.6-0.2-1.3-0.3-1.9c-0.1-0.3-0.1-0.5-0.2-0.8c-0.1-0.6-0.2-1.1-0.3-1.7
			c0-0.2,0-0.2-0.2-0.2c-2.2,0-4.5,0-6.7,0c-0.1,0-0.2,0.1-0.2,0.2c-0.2,0.4-0.4,0.8-0.6,1.2c-0.2,0.5-0.4,0.9-0.7,1.4
			c-0.3,0.6-0.5,1.1-0.8,1.7c-0.1,0.1-0.2,0.2-0.3,0.2c-1.6,0-3.2,0-4.7,0h-0.2c0-0.1,0-0.1,0.1-0.2c1.1-2.1,2.1-4.3,3.2-6.4
			c0.8-1.6,1.6-3.1,2.3-4.7c0.9-1.7,1.7-3.4,2.6-5.1c0.4-0.8,0.8-1.6,1.2-2.4c0,0,0,0,0-0.1h-3V1c0.1,0,0.1,0,0.2,0c3,0,6.1,0,9.1,0
			c0.1,0,0.2,0,0.2,0.1c0.1,0.5,0.2,1,0.3,1.5c0.1,0.3,0.2,0.7,0.2,1c0.2,0.9,0.4,1.8,0.6,2.7c0.2,0.7,0.3,1.4,0.5,2.1
			c0.2,1.1,0.5,2.1,0.7,3.2c0.3,1.2,0.6,2.5,0.8,3.7c0.2,0.9,0.4,1.8,0.6,2.7c0.2,0.9,0.4,1.8,0.6,2.7c0.2,0.7,0.3,1.5,0.5,2.2
			C90.1,23.1,90.1,23.2,90.2,23.4L90.2,23.4z M83.2,15.1C83.2,15.1,83.3,15.1,83.2,15.1c0.1-0.1,0.1-0.2,0-0.3
			c-0.2-0.8-0.3-1.6-0.5-2.5c-0.2-0.9-0.4-1.9-0.6-2.8c-0.1-0.4-0.1-0.8-0.2-1.1c0,0,0-0.1-0.1-0.1c-1.1,2.3-2.2,4.6-3.3,6.9
			C80.2,15.1,81.7,15.1,83.2,15.1L83.2,15.1z"/>
		<path class="st0" d="M132.4,18.8h-7.1c-0.2,0.5-0.5,1-0.7,1.4c-0.4,0.8-0.8,1.6-1.2,2.4c-0.1,0.2-0.2,0.4-0.3,0.6
			c0,0.1-0.1,0.2-0.2,0.2c-1.7,0-3.4,0-5,0c0,0-0.1,0-0.1,0c0-0.1,0-0.1,0.1-0.2c0.9-1.8,1.8-3.5,2.7-5.3c0.7-1.3,1.4-2.7,2.1-4
			c0.6-1.1,1.2-2.3,1.8-3.4c0.8-1.6,1.6-3.2,2.4-4.8c0.6-1.1,1.1-2.2,1.7-3.3c0.2-0.4,0.4-0.8,0.6-1.1c0.1-0.1,0.1-0.2,0.2-0.2
			c1.5,0,2.9,0,4.4,0c0,0,0.1,0,0.1,0c0.1,0.4,0.2,0.9,0.3,1.3c0.1,0.7,0.3,1.4,0.4,2c0.1,0.5,0.2,1,0.3,1.5
			c0.2,0.9,0.4,1.8,0.6,2.7c0.1,0.7,0.3,1.4,0.5,2.2c0.2,0.7,0.3,1.5,0.5,2.2c0.2,0.7,0.3,1.5,0.5,2.2c0.2,0.8,0.3,1.6,0.5,2.4
			c0.1,0.7,0.3,1.4,0.4,2.1c0.1,0.7,0.3,1.4,0.4,2c0.1,0.5,0.2,1,0.3,1.5c0,0.2,0,0.2-0.1,0.2c0,0-0.1,0-0.1,0c-1.6,0-3.2,0-4.9,0
			c-0.1,0-0.1,0-0.2,0C133,21.9,132.7,20.4,132.4,18.8L132.4,18.8z M130.4,8.2c-1.1,2.3-2.2,4.6-3.3,6.9c0,0,0.1,0,0.1,0
			c1.4,0,2.8,0,4.2,0c0.1,0,0.2,0,0.3,0s0.1,0,0.1-0.1c0-0.1,0-0.2-0.1-0.4c-0.2-1-0.4-2-0.6-3C130.9,10.5,130.6,9.4,130.4,8.2
			L130.4,8.2z"/>
		<path class="st0" d="M32.7,1c1.6,7.5,3.2,14.9,4.8,22.4h-5.4c-0.3-1.5-0.6-3.1-0.9-4.6h-7.1c-0.2,0.4-0.4,0.8-0.6,1.2
			c-0.3,0.6-0.6,1.2-0.9,1.8c-0.2,0.5-0.5,0.9-0.7,1.3c0,0,0,0,0,0c0,0.3-0.3,0.3-0.5,0.3c-1.6,0-3.1,0-4.7,0h-0.2
			c0-0.1,0-0.1,0-0.2c0.9-1.8,1.9-3.7,2.8-5.5c0.6-1.2,1.2-2.4,1.8-3.6c1-2,2-4,3-5.9c0.7-1.3,1.4-2.7,2-4c0.5-1,1-2,1.5-3
			C28,1.1,28.1,1,28.3,1c1.4,0,2.9,0,4.3,0C32.6,1,32.7,1,32.7,1L32.7,1z M29.4,8.2C29.4,8.2,29.3,8.2,29.4,8.2
			c-1.1,2.3-2.2,4.6-3.4,6.8h4.7C30.3,12.8,29.8,10.5,29.4,8.2z"/>
		<path class="st0" d="M61.3,9.8h5.9c0,0.1,0,0.1,0,0.2c0,0.3-0.1,0.6-0.1,0.8c-0.1,0.5-0.1,1-0.2,1.5c-0.1,0.5-0.1,1-0.2,1.5
			c0,0.3-0.1,0.3-0.3,0.3c-1,0-2,0-3,0c-0.8,0-1.6,0-2.4,0c-0.2,0-0.2,0-0.2,0.2c-0.1,0.6-0.2,1.2-0.3,1.8c-0.1,0.6-0.2,1.2-0.2,1.8
			c0,0.3-0.1,0.5-0.1,0.8c0,0,0,0.1,0,0.1h8.2c-0.1,0.4-0.2,0.9-0.3,1.3c-0.2,0.7-0.3,1.3-0.5,2c-0.1,0.4-0.2,0.8-0.3,1.2
			c0,0.1-0.1,0.1-0.2,0.1c0,0-0.1,0-0.1,0c-4.2,0-8.3,0-12.4,0c-0.2,0-0.2,0-0.2-0.3c0.1-0.5,0.1-1,0.2-1.5c0.1-0.4,0.1-0.8,0.2-1.2
			c0.1-0.5,0.1-1.1,0.2-1.6c0.1-0.5,0.1-1,0.2-1.5c0.1-0.5,0.1-0.9,0.2-1.4c0.1-0.4,0.1-0.9,0.2-1.3c0.1-0.4,0.1-0.9,0.2-1.4
			c0-0.4,0.1-0.8,0.2-1.2c0.1-0.5,0.1-0.9,0.2-1.4c0.1-0.5,0.1-1.1,0.2-1.6c0.1-0.5,0.1-1,0.2-1.5c0.1-0.5,0.2-0.9,0.2-1.4
			c0.1-0.4,0.1-0.9,0.2-1.3C57,4.5,57,4.1,57.1,3.7s0.1-0.9,0.2-1.3c0-0.4,0.1-0.7,0.2-1.1c0-0.2,0.1-0.2,0.3-0.2
			c3.8,0,7.6,0,11.5,0c0.2,0,0.2,0.1,0.1,0.2c-0.1,0.5-0.1,1-0.2,1.5c-0.1,0.8-0.2,1.6-0.3,2.5c0,0,0,0,0,0c0,0.3,0,0.3-0.3,0.3
			c-2.1,0-4.3,0-6.4,0c-0.2,0-0.2,0.1-0.2,0.2c-0.1,0.8-0.2,1.6-0.3,2.4c-0.1,0.4-0.1,0.9-0.2,1.3C61.3,9.5,61.3,9.6,61.3,9.8
			L61.3,9.8z"/>
		<path class="st0" d="M45.5,18.5h7.6c0,0.1,0,0.2,0,0.3c-0.1,0.6-0.3,1.2-0.4,1.8c-0.2,0.6-0.3,1.3-0.4,1.9
			c-0.1,0.2-0.1,0.5-0.2,0.8c0,0-0.1,0.1-0.1,0.1c0,0-0.1,0-0.1,0c-4,0-8,0-11.9,0h-0.2c0-0.3,0.1-0.6,0.1-1
			c0.1-0.5,0.1-0.9,0.2-1.4c0.1-0.5,0.1-0.9,0.2-1.4c0.1-0.7,0.2-1.5,0.3-2.2c0.1-0.4,0.1-0.8,0.2-1.2c0.1-0.4,0.1-0.8,0.2-1.2
			c0.1-0.4,0.1-0.9,0.2-1.3c0.1-0.4,0.1-0.9,0.2-1.3c0.1-0.4,0.1-0.9,0.2-1.4c0.1-0.5,0.1-1,0.2-1.5c0.1-0.5,0.1-1,0.2-1.4
			C41.9,7.6,41.9,7,42,6.5c0.1-0.5,0.1-1,0.2-1.5c0.1-0.9,0.2-1.7,0.3-2.6c0-0.4,0.1-0.8,0.1-1.2c0-0.1,0.1-0.1,0.2-0.1
			c0.9,0,1.8,0,2.7,0c0.7,0,1.5,0,2.2,0c0.1,0,0.2,0.1,0.2,0.2c-0.1,0.4-0.1,0.8-0.2,1.1c-0.1,0.6-0.1,1.2-0.2,1.7
			c-0.1,0.5-0.1,1-0.2,1.5c-0.1,0.6-0.2,1.2-0.2,1.7c0,0.3-0.1,0.7-0.1,1c0,0.4-0.1,0.8-0.1,1.1c-0.1,0.5-0.2,1-0.2,1.4
			c0,0.4-0.1,0.7-0.1,1.1c0,0.4-0.1,0.8-0.2,1.2c-0.1,0.4-0.1,0.9-0.2,1.3c0,0.4-0.1,0.8-0.2,1.2c-0.1,0.5-0.1,1-0.2,1.4
			c0,0.4-0.1,0.8-0.2,1.2C45.5,18.4,45.5,18.4,45.5,18.5L45.5,18.5z"/>
		<path class="st0" d="M110.8,23.4c0.1-0.4,0.1-0.7,0.2-1.1c0.1-0.4,0.1-0.8,0.2-1.2c0.1-0.5,0.1-0.9,0.2-1.3c0.1-0.5,0.1-1,0.2-1.5
			c0.1-0.8,0.2-1.6,0.3-2.4c0.1-0.5,0.2-1,0.2-1.5c0.1-0.8,0.2-1.6,0.3-2.4c0.1-0.9,0.2-1.7,0.3-2.6c0.1-0.7,0.2-1.4,0.3-2.1
			c0.1-0.4,0.1-0.8,0.2-1.2c0.1-0.4,0.1-0.8,0.2-1.3c0.1-0.4,0.1-0.9,0.2-1.3c0.1-0.6,0.2-1.1,0.2-1.7c0-0.1,0-0.2,0-0.4
			s0-0.2,0.2-0.2c1.5,0,3,0,4.5,0c0.1,0,0.2,0,0.3,0c0.1,0,0.2,0,0.2,0.2c0,0.3-0.1,0.6-0.1,0.8c-0.1,0.5-0.1,0.9-0.2,1.4
			c-0.1,0.5-0.2,1-0.2,1.5c-0.1,0.3-0.1,0.7-0.1,1.1c-0.1,0.4-0.1,0.8-0.2,1.3c-0.1,0.4-0.1,0.9-0.2,1.3c-0.1,0.5-0.1,0.9-0.2,1.4
			c-0.1,0.7-0.2,1.3-0.3,2c-0.1,0.5-0.1,0.9-0.2,1.4c-0.1,0.6-0.2,1.2-0.2,1.8c-0.1,0.3-0.1,0.6-0.1,1c-0.1,0.4-0.1,0.7-0.1,1.1
			c-0.1,0.5-0.2,1-0.2,1.5c-0.1,0.4-0.1,0.8-0.2,1.2c-0.1,0.5-0.1,0.9-0.2,1.4c-0.1,0.6-0.1,1.2-0.2,1.9c0,0.1-0.1,0.2-0.2,0.2
			c-0.2,0-0.4,0-0.7,0c-1.4,0-2.7,0-4.1,0C111,23.4,110.9,23.4,110.8,23.4z"/>
	</g>
	<path class="st1" d="M83.2,15.1C83.2,15.1,83.3,15.1,83.2,15.1C83.3,15.1,83.2,15.1,83.2,15.1z"/>
</g>
<rect y="0" class="st2" width="139.4" height="24.4"/>
</svg>
